<?xml version="1.0" standalone="no"?>
<!DOCTYPE svg PUBLIC "-//W3C//DTD SVG 20010904//EN"
 "http://www.w3.org/TR/2001/REC-SVG-20010904/DTD/svg10.dtd">
<svg version="1.0" xmlns="http://www.w3.org/2000/svg"
 width="1569.000000pt" height="216.000000pt" viewBox="0 0 1569.000000 216.000000"
 preserveAspectRatio="xMidYMid meet">

<g transform="translate(0.000000,216.000000) scale(0.100000,-0.100000)"
fill="#000000" stroke="none">
<path d="M87 2123 c-4 -3 -7 -469 -7 -1035 l0 -1028 605 0 605 0 -2 1033 -3
1032 -596 3 c-327 1 -599 -1 -602 -5z m1193 -1028 l0 -1025 -595 0 -595 0 0
1025 0 1025 595 0 595 0 0 -1025z"/>
<path d="M653 1833 c20 -2 54 -2 75 0 20 2 3 4 -38 4 -41 0 -58 -2 -37 -4z"/>
<path d="M568 1823 c6 -2 18 -2 25 0 6 3 1 5 -13 5 -14 0 -19 -2 -12 -5z"/>
<path d="M778 1823 c6 -2 18 -2 25 0 6 3 1 5 -13 5 -14 0 -19 -2 -12 -5z"/>
<path d="M485 1805 c-39 -18 -31 -18 25 -1 25 8 36 15 25 15 -11 0 -33 -6 -50
-14z"/>
<path d="M828 1813 c7 -3 16 -2 19 1 4 3 -2 6 -13 5 -11 0 -14 -3 -6 -6z"/>
<path d="M949 1763 c40 -24 80 -58 106 -91 46 -58 85 -156 70 -171 -6 -5 -68
-33 -140 -61 -123 -49 -130 -51 -143 -33 -14 17 -14 17 -8 0 3 -10 6 -21 6
-23 0 -11 34 0 167 52 139 55 143 57 137 83 -13 55 -54 131 -95 176 -40 43
-130 105 -154 105 -5 0 19 -17 54 -37z"/>
<path d="M368 1747 c-121 -82 -179 -211 -164 -360 13 -117 72 -208 190 -292
81 -56 116 -78 116 -72 0 2 -30 24 -67 48 -179 117 -250 253 -222 428 17 110
81 202 183 261 28 16 46 30 39 30 -6 0 -40 -19 -75 -43z"/>
<path d="M633 1525 c-30 -13 -60 -51 -50 -62 3 -2 8 4 11 15 6 18 28 33 70 46
34 11 93 -13 130 -54 20 -22 36 -37 36 -32 0 17 -62 74 -95 87 -42 18 -61 18
-102 0z"/>
<path d="M580 1414 c0 -19 35 -57 86 -93 26 -19 44 -30 40 -23 -4 6 -27 26
-52 44 -25 18 -52 44 -60 58 -7 14 -13 20 -14 14z"/>
<path d="M730 1280 c8 -6 63 -41 122 -78 158 -99 246 -190 291 -306 15 -38 20
-76 21 -151 1 -91 -2 -105 -27 -153 -74 -141 -240 -222 -451 -222 -163 0 -276
41 -374 134 -53 50 -112 147 -112 184 0 12 13 23 36 31 19 7 34 15 32 17 -3 2
-23 -4 -46 -13 -48 -18 -48 -19 -7 -110 47 -104 149 -187 280 -229 61 -19 97
-24 183 -24 183 0 306 43 403 139 79 80 103 144 96 269 -4 82 -9 101 -42 170
-49 100 -145 195 -283 280 -92 56 -166 94 -122 62z"/>
<path d="M570 986 c0 -3 9 -10 20 -16 11 -6 20 -8 20 -6 0 3 -9 10 -20 16 -11
6 -20 8 -20 6z"/>
<path d="M650 937 c0 -3 12 -12 26 -22 15 -9 23 -12 20 -6 -7 11 -46 35 -46
28z"/>
<path d="M730 875 c13 -14 26 -25 28 -25 3 0 -5 11 -18 25 -13 14 -26 25 -28
25 -3 0 5 -11 18 -25z"/>
<path d="M510 811 c0 -6 4 -13 10 -16 6 -3 7 1 4 9 -7 18 -14 21 -14 7z"/>
<path d="M410 800 c-8 -5 -10 -10 -5 -10 6 0 17 5 25 10 8 5 11 10 5 10 -5 0
-17 -5 -25 -10z"/>
<path d="M360 780 c-8 -5 -10 -10 -5 -10 6 0 17 5 25 10 8 5 11 10 5 10 -5 0
-17 -5 -25 -10z"/>
<path d="M565 740 c21 -22 41 -40 44 -40 3 0 -13 18 -34 40 -21 22 -41 40 -44
40 -3 0 13 -18 34 -40z"/>
<path d="M771 764 c0 -11 3 -14 6 -6 3 7 2 16 -1 19 -3 4 -6 -2 -5 -13z"/>
<path d="M290 750 c-8 -5 -10 -10 -5 -10 6 0 17 5 25 10 8 5 11 10 5 10 -5 0
-17 -5 -25 -10z"/>
<path d="M744 718 l-19 -23 23 19 c21 18 27 26 19 26 -2 0 -12 -10 -23 -22z"/>
<path d="M653 683 c9 -2 25 -2 35 0 9 3 1 5 -18 5 -19 0 -27 -2 -17 -5z"/>
<path d="M1550 1090 l0 -1030 630 0 630 0 0 1030 0 1030 -630 0 -630 0 0
-1030z m462 574 l3 -166 115 166 115 165 203 1 204 0 -39 -52 c-21 -29 -143
-194 -271 -366 -144 -193 -230 -318 -225 -325 4 -7 125 -171 270 -364 l263
-353 -203 0 -202 0 -115 153 -115 152 -3 -152 -3 -153 -164 0 -165 0 0 730 0
730 165 0 165 0 2 -166z"/>
<path d="M3050 1090 l0 -1030 300 0 300 0 0 1030 0 1030 -300 0 -300 0 0
-1030z m460 10 l0 -730 -165 0 -165 0 0 730 0 730 165 0 165 0 0 -730z"/>
<path d="M3870 1090 l0 -1030 658 2 657 3 3 1028 2 1027 -660 0 -660 0 0
-1030z m646 390 c104 -192 192 -350 197 -350 4 0 7 158 7 350 l0 350 175 0
175 0 0 -730 0 -730 -168 0 -168 0 -194 355 -195 355 -3 -355 -2 -355 -175 0
-175 0 0 730 0 730 168 0 169 0 189 -350z"/>
<path d="M5430 1090 l0 -1030 660 0 660 0 0 1030 0 1030 -660 0 -660 0 0
-1030z m792 729 c145 -30 276 -134 342 -271 21 -43 35 -82 32 -87 -4 -5 -67
-43 -141 -85 l-135 -75 -21 42 c-35 68 -59 98 -107 128 -84 53 -193 32 -264
-50 -55 -64 -63 -108 -63 -331 0 -212 5 -239 56 -310 55 -75 178 -112 262 -76
30 12 93 73 127 123 15 21 15 21 145 -52 72 -41 134 -76 140 -78 18 -6 -74
-144 -130 -195 -60 -55 -152 -104 -225 -121 -67 -15 -266 -13 -329 4 -124 32
-237 118 -293 221 -60 111 -71 175 -76 457 -3 215 -1 271 13 333 46 206 192
367 382 419 60 16 215 19 285 4z"/>
<path d="M9502 1093 l3 -1028 658 -3 657 -2 0 1030 0 1030 -660 0 -660 0 2
-1027z m655 377 l193 -355 0 358 0 357 175 0 175 0 0 -730 0 -730 -167 0 -168
0 -195 358 -195 357 -3 -358 -2 -357 -175 0 -175 0 0 730 0 730 172 -2 172 -3
193 -355z"/>
<path d="M11070 1090 l0 -1030 690 0 690 0 0 1030 0 1030 -690 0 -690 0 0
-1030z m577 414 c73 -220 111 -321 117 -312 5 8 54 154 110 324 l102 309 192
3 c142 2 192 -1 192 -9 0 -11 -252 -798 -408 -1277 l-56 -172 -149 2 -150 3
-208 680 c-115 374 -216 701 -224 728 l-14 47 194 0 193 0 109 -326z"/>
<path d="M12630 1090 l0 -1030 785 0 785 0 0 1030 0 1030 -785 0 -785 0 0
-1030z m980 735 c0 -2 95 -328 210 -723 116 -396 210 -722 210 -726 0 -4 -84
-5 -187 -4 l-186 3 -48 145 c-27 80 -56 164 -65 188 l-16 42 -143 0 -143 0
-26 -72 c-15 -40 -44 -125 -65 -188 l-38 -115 -186 -3 c-103 -1 -187 1 -187 5
0 5 95 333 212 731 l213 722 222 0 c123 0 223 -2 223 -5z"/>
<path d="M14440 1090 l0 -1030 605 0 605 0 0 1030 0 1030 -605 0 -605 0 0
-1030z m751 722 c128 -36 219 -109 270 -215 46 -98 49 -94 -112 -156 -116 -45
-142 -52 -150 -40 -5 8 -9 20 -9 27 0 25 -86 99 -123 106 -43 8 -100 -13 -116
-42 -16 -30 -13 -84 5 -110 21 -30 97 -84 228 -162 60 -36 141 -95 181 -132
222 -207 217 -510 -11 -644 -84 -49 -151 -66 -289 -71 -118 -4 -137 -3 -206
19 -85 28 -172 81 -220 136 -39 44 -95 160 -83 172 5 5 74 36 154 70 135 57
146 60 157 43 48 -70 63 -87 101 -109 50 -31 95 -27 139 11 23 19 28 32 28 69
0 39 -5 50 -40 86 -22 23 -107 82 -188 133 -187 116 -256 176 -299 265 -31 62
-33 74 -33 167 0 90 3 106 29 159 53 108 159 188 294 220 83 21 215 19 293 -2z"/>
<path d="M7788 1522 c-179 -312 -440 -763 -579 -1002 -138 -239 -254 -443
-257 -453 -4 -16 57 -17 1172 -17 656 0 1176 4 1176 9 0 4 -87 159 -193 342
-107 184 -356 615 -554 959 -437 757 -416 723 -428 727 -6 1 -157 -253 -337
-565z m375 178 c13 -25 70 -122 124 -216 55 -94 102 -175 104 -180 2 -5 30
-53 63 -108 122 -204 566 -980 566 -988 0 -4 -403 -8 -895 -8 -567 0 -895 4
-895 10 0 9 863 1513 883 1538 12 15 17 11 50 -48z"/>
</g>
</svg>
