<svg xmlns="http://www.w3.org/2000/svg" xmlns:xlink="http://www.w3.org/1999/xlink" width="251" height="70" viewBox="0 0 251 70">
  <defs>
    <linearGradient id="linear-gradient" x1="-4.008" y1="-1.081" x2="3.113" y2="1.377" gradientUnits="objectBoundingBox">
      <stop offset="0" stop-color="#8fead8"/>
      <stop offset="0.11" stop-color="#8ee6da"/>
      <stop offset="0.228" stop-color="#8bd9de"/>
      <stop offset="0.35" stop-color="#86c3e5"/>
      <stop offset="0.474" stop-color="#80a5f0"/>
      <stop offset="0.576" stop-color="#7987fa"/>
      <stop offset="0.677" stop-color="#8386fa"/>
      <stop offset="0.85" stop-color="#9f82fa"/>
      <stop offset="1" stop-color="#bc7ffa"/>
    </linearGradient>
    <linearGradient id="linear-gradient-2" x1="-1.991" y1="-3.627" x2="5.13" y2="8.169" xlink:href="#linear-gradient"/>
    <linearGradient id="linear-gradient-3" x1="-3.682" y1="-6.426" x2="6.475" y2="10.396" xlink:href="#linear-gradient"/>
    <linearGradient id="linear-gradient-4" x1="-4.873" y1="-8.4" x2="5.284" y2="8.423" xlink:href="#linear-gradient"/>
    <linearGradient id="linear-gradient-5" x1="-0.574" y1="-0.96" x2="1.669" y2="1.497" xlink:href="#linear-gradient"/>
    <linearGradient id="linear-gradient-6" x1="-1.019" y1="-0.755" x2="1.123" y2="1.151" xlink:href="#linear-gradient"/>
    <linearGradient id="linear-gradient-7" x1="-2.988" y1="-5.277" x2="7.169" y2="11.546" xlink:href="#linear-gradient"/>
    <linearGradient id="linear-gradient-8" x1="-2.425" y1="-4.345" x2="7.732" y2="12.478" xlink:href="#linear-gradient"/>
    <linearGradient id="linear-gradient-9" x1="-2.386" y1="-4.28" x2="4.735" y2="7.515" xlink:href="#linear-gradient"/>
    <linearGradient id="linear-gradient-10" x1="-3.297" y1="-2.142" x2="1.577" y2="1.317" xlink:href="#linear-gradient"/>
    <linearGradient id="linear-gradient-11" x1="-2.295" y1="-1.607" x2="2.579" y2="1.852" xlink:href="#linear-gradient"/>
  </defs>
  <g id="Group_4396" data-name="Group 4396" transform="translate(-30 -19)">
    <g id="Layer_1" transform="translate(30 19)">
      <path id="Path_1" data-name="Path 1" d="M152.1,120.488a4.659,4.659,0,1,0-5.93,4.419v35.288h2.543V124.906A4.6,4.6,0,0,0,152.1,120.488Z" transform="translate(-113.445 -90.203)" fill="url(#linear-gradient)"/>
      <path id="Path_2" data-name="Path 2" d="M147.439,67.075a4.618,4.618,0,1,0-4.659-4.618A4.639,4.639,0,0,0,147.439,67.075Z" transform="translate(-113.445 -57.84)" fill="url(#linear-gradient-2)"/>
      <ellipse id="Ellipse_1" data-name="Ellipse 1" cx="3.266" cy="3.238" rx="3.266" ry="3.238" transform="translate(46.095 1.38)" fill="url(#linear-gradient-3)"/>
      <path id="Path_3" data-name="Path 3" d="M200.826,96.455a3.238,3.238,0,1,0-3.266-3.238A3.254,3.254,0,0,0,200.826,96.455Z" transform="translate(-143.781 -75.764)" fill="url(#linear-gradient-4)"/>
      <path id="Path_4" data-name="Path 4" d="M102.912,130.127l-3.869-6.462a4.573,4.573,0,0,0,1.285-3.167,4.65,4.65,0,0,0-9.116-1.261h-7.9a3.238,3.238,0,1,0,0,2.521h7.9a4.637,4.637,0,0,0,4.458,3.357,4.739,4.739,0,0,0,1.182-.168l3.873,6.467a3.211,3.211,0,0,0,1.357,4.892v23.9h2.543V136.3a3.226,3.226,0,0,0,1.959-3.441A3.259,3.259,0,0,0,102.912,130.127Z" transform="translate(-77.04 -90.208)" fill="url(#linear-gradient-5)"/>
      <path id="Path_5" data-name="Path 5" d="M187.722,101.066a3.263,3.263,0,0,0-3.008,1.977h-7.9a4.637,4.637,0,0,0-4.458-3.357,4.739,4.739,0,0,0-1.182.168l-3.124-5.219a4.573,4.573,0,0,0,1.285-3.167,4.659,4.659,0,1,0-4.659,4.618,4.739,4.739,0,0,0,1.182-.168l3.124,5.219a4.545,4.545,0,0,0,0,6.334l-3.873,6.475a3.5,3.5,0,0,0-.433-.044,3.233,3.233,0,0,0-1.272,6.219v23.894h2.543V120.121a3.234,3.234,0,0,0,1.995-2.981,3.2,3.2,0,0,0-.643-1.911l3.878-6.475a4.739,4.739,0,0,0,1.182.168,4.633,4.633,0,0,0,4.458-3.357h7.9a3.259,3.259,0,1,0,3-4.5Z" transform="translate(-122.992 -74.019)" fill="url(#linear-gradient-6)"/>
      <path id="Path_6" data-name="Path 6" d="M97.516,96.455a3.238,3.238,0,1,0-3.266-3.238A3.254,3.254,0,0,0,97.516,96.455Z" transform="translate(-86.57 -75.764)" fill="url(#linear-gradient-7)"/>
      <ellipse id="Ellipse_2" data-name="Ellipse 2" cx="3.266" cy="3.238" rx="3.266" ry="3.238" transform="translate(15.363 1.38)" fill="url(#linear-gradient-8)"/>
      <path id="Path_7" data-name="Path 7" d="M130.229,96.085a4.618,4.618,0,1,0-4.659-4.618A4.639,4.639,0,0,0,130.229,96.085Z" transform="translate(-103.915 -74.019)" fill="url(#linear-gradient-9)"/>
      <path id="Path_8" data-name="Path 8" d="M193.766,144.89a4.639,4.639,0,0,0-4.659,4.618,4.545,4.545,0,0,0,.759,2.512l-5.056,5.737v18.63h2.544V158.7l4.431-5.029a4.624,4.624,0,1,0,1.981-8.784Z" transform="translate(-136.72 -106.387)" fill="url(#linear-gradient-10)"/>
      <path id="Path_9" data-name="Path 9" d="M100.447,149.508a4.659,4.659,0,1,0-4.659,4.618,4.712,4.712,0,0,0,1.981-.451L102.2,158.7v17.684h2.543v-18.63l-5.056-5.737A4.582,4.582,0,0,0,100.447,149.508Z" transform="translate(-84.843 -106.387)" fill="url(#linear-gradient-11)"/>
    </g>
    <g id="Group_5" data-name="Group 5" transform="translate(65.507 -3.969)">
      <g id="Group_2" data-name="Group 2" transform="translate(47.494 73.969)">
        <g id="Group_1" data-name="Group 1" transform="translate(0 0)">
          <path id="Path_10" data-name="Path 10" d="M2.8,12.587V5.741H.07V4.767H6.654v.974H3.924v6.846Zm13.332-7.82h1.137v7.82H16.131V9.105H11.563v3.482H10.426V4.767h1.137V8.131h4.568Zm7.19,6.852h4.644v.968H22.184V4.767H27.8v.974h-4.48v2.4h3.993v.95H23.322ZM40.242,12.68a5.548,5.548,0,0,1-1.738-.273,3.556,3.556,0,0,1-1.314-.714h0l.423-.869a3.453,3.453,0,0,0,1.163.652,4.335,4.335,0,0,0,1.466.254h0a2.686,2.686,0,0,0,1.479-.329,1.015,1.015,0,0,0,.487-.881h0a.863.863,0,0,0-.265-.652,1.893,1.893,0,0,0-.663-.385q-.392-.137-1.106-.3h0a11.9,11.9,0,0,1-1.453-.422,2.387,2.387,0,0,1-.941-.652,1.729,1.729,0,0,1-.392-1.192h0a1.992,1.992,0,0,1,.335-1.13,2.269,2.269,0,0,1,1.017-.8,4.161,4.161,0,0,1,1.693-.3h0a5.428,5.428,0,0,1,1.39.18,3.712,3.712,0,0,1,1.169.515h0l-.373.894a4.157,4.157,0,0,0-2.186-.639h0a2.468,2.468,0,0,0-1.447.348,1.056,1.056,0,0,0-.487.894h0a.841.841,0,0,0,.272.652,1.891,1.891,0,0,0,.682.391,9.558,9.558,0,0,0,1.093.3h0a11.54,11.54,0,0,1,1.447.422,2.4,2.4,0,0,1,.935.652,1.686,1.686,0,0,1,.392,1.173h0a1.974,1.974,0,0,1-.341,1.123,2.309,2.309,0,0,1-1.03.8,4.331,4.331,0,0,1-1.706.3Zm13.218-.093-.878-1.955H48.349l-.872,1.955H46.3l3.608-7.82h1.125l3.62,7.82ZM48.747,9.738h3.437L50.466,5.909Zm9.617,2.849V4.767H59.5v6.852H63.81v.968Zm10.419-.968H73.42v.968H67.645V4.767h5.617v.974h-4.48v2.4h3.993v.95H68.783ZM80.112,12.68a5.528,5.528,0,0,1-1.731-.273,3.49,3.49,0,0,1-1.314-.714h0l.417-.869a3.444,3.444,0,0,0,1.169.652,4.282,4.282,0,0,0,1.46.254h0A2.666,2.666,0,0,0,81.59,11.4a1.012,1.012,0,0,0,.493-.881h0a.853.853,0,0,0-.272-.652,1.827,1.827,0,0,0-.657-.385,11.489,11.489,0,0,0-1.112-.3h0A11.542,11.542,0,0,1,78.6,8.758a2.387,2.387,0,0,1-.941-.652,1.711,1.711,0,0,1-.4-1.192h0a1.966,1.966,0,0,1,.341-1.13,2.27,2.27,0,0,1,1.017-.8,4.161,4.161,0,0,1,1.693-.3h0a5.4,5.4,0,0,1,1.384.18,3.793,3.793,0,0,1,1.175.515h0l-.379.894a4.158,4.158,0,0,0-2.18-.639h0a2.5,2.5,0,0,0-1.453.348,1.059,1.059,0,0,0-.48.894h0a.841.841,0,0,0,.272.652,1.829,1.829,0,0,0,.676.391,9.981,9.981,0,0,0,1.1.3h0a11.193,11.193,0,0,1,1.441.422,2.387,2.387,0,0,1,.941.652,1.686,1.686,0,0,1,.392,1.173h0a1.974,1.974,0,0,1-.341,1.123,2.305,2.305,0,0,1-1.036.8,4.331,4.331,0,0,1-1.706.3Zm16.415,0a4.442,4.442,0,0,1-2.155-.521,3.867,3.867,0,0,1-2.053-3.482h0a3.891,3.891,0,0,1,.55-2.048A3.8,3.8,0,0,1,94.378,5.2a4.479,4.479,0,0,1,2.161-.521h0a4.529,4.529,0,0,1,1.706.31,3.44,3.44,0,0,1,1.321.906h0l-.739.708a2.987,2.987,0,0,0-2.243-.931h0a3.273,3.273,0,0,0-1.6.391,2.857,2.857,0,0,0-1.125,1.08,2.972,2.972,0,0,0-.4,1.533h0a2.984,2.984,0,0,0,.4,1.539,2.857,2.857,0,0,0,1.125,1.08,3.273,3.273,0,0,0,1.6.391h0a2.993,2.993,0,0,0,2.243-.943h0l.739.708a3.491,3.491,0,0,1-1.327.912,4.5,4.5,0,0,1-1.712.317Zm10.615,0a4.5,4.5,0,0,1-2.174-.521A3.865,3.865,0,0,1,102.9,8.677h0a3.9,3.9,0,0,1,.55-2.042A3.829,3.829,0,0,1,104.968,5.2a4.5,4.5,0,0,1,2.174-.521h0A4.479,4.479,0,0,1,109.3,5.2a3.843,3.843,0,0,1,1.516,1.427,3.926,3.926,0,0,1,.543,2.048h0a3.826,3.826,0,0,1-2.06,3.482,4.479,4.479,0,0,1-2.161.521Zm0-.993a3.188,3.188,0,0,0,1.58-.391,2.905,2.905,0,0,0,1.1-1.08,2.984,2.984,0,0,0,.4-1.539h0a2.972,2.972,0,0,0-.4-1.533,2.905,2.905,0,0,0-1.1-1.08,3.188,3.188,0,0,0-1.58-.391h0a3.247,3.247,0,0,0-1.586.391,2.88,2.88,0,0,0-1.112,1.08,2.972,2.972,0,0,0-.4,1.533h0a2.984,2.984,0,0,0,.4,1.539,2.88,2.88,0,0,0,1.112,1.08,3.247,3.247,0,0,0,1.586.391Zm16.959.9h-1.087L123,6.889l-2.881,4.748H119.6L116.72,6.927v5.66h-1.093V4.767h.935l3.323,5.5,3.273-5.5h.935Zm8.024-7.82a3.725,3.725,0,0,1,2.433.726,2.452,2.452,0,0,1,.885,2h0a2.445,2.445,0,0,1-.885,2,3.725,3.725,0,0,1-2.433.726h-1.971v2.365h-1.137V4.767Zm-.038,4.481a2.6,2.6,0,0,0,1.649-.453,1.562,1.562,0,0,0,.569-1.3h0a1.569,1.569,0,0,0-.569-1.3,2.6,2.6,0,0,0-1.649-.453h-1.933V9.248Zm13.1,3.339-.872-1.955h-4.233l-.872,1.955h-1.175l3.608-7.82h1.125l3.614,7.82Zm-4.707-2.849h3.437L142.2,5.909Zm15.322-4.971h1.137v7.82h-.929l-4.777-5.828v5.828H150.1V4.767h.929l4.777,5.834Zm12.264,0-3.159,5.12v2.7H163.78V9.862l-3.159-5.1h1.219l2.546,4.127,2.559-4.127Z" transform="translate(-0.07 -4.68)" fill="#14061d"/>
        </g>
      </g>
      <g id="Group_4" data-name="Group 4" transform="translate(47.494 33.969)">
        <g id="Group_3" data-name="Group 3" transform="translate(0 0)">
          <path id="Path_11" data-name="Path 11" d="M21.48,46.8,19.7,41.433H8.945L7.167,46.8H1.48l9.712-28.205h6.3L27.208,46.8ZM10.418,36.916h7.811l-3.9-11.788Zm31.524-7.83H37.15V39.9a2.191,2.191,0,0,0,.523,1.635,2.494,2.494,0,0,0,1.758.5h2.511V46.8h-3.4q-6.848,0-6.848-6.938h0V29.086H29.142V24.441h2.552V18.912H37.15v5.529h4.791Zm15.012,0h-4.8V39.9a2.191,2.191,0,0,0,.523,1.635,2.506,2.506,0,0,0,1.765.5h2.511V46.8H53.547q-6.841,0-6.841-6.938h0V29.086H44.147V24.441h2.559V18.912h5.45v5.529h4.8ZM63.6,21.779a3.244,3.244,0,0,1-3.325-3.306h0A3.244,3.244,0,0,1,63.6,15.16h0a3.245,3.245,0,0,1,3.332,3.313h0a3.2,3.2,0,0,1-.95,2.358,3.234,3.234,0,0,1-2.382.949Zm-2.742,2.662h5.416V46.8H60.862Zm14.272,0L80.55,41.6l5.416-17.154h5.762L83.8,46.8H77.225L69.332,24.441Zm22.4-2.662A3.244,3.244,0,0,1,94.2,18.473h0A3.244,3.244,0,0,1,97.53,15.16h0a3.245,3.245,0,0,1,3.332,3.313h0a3.2,3.2,0,0,1-.95,2.358,3.234,3.234,0,0,1-2.382.949Zm-2.742,2.662H100.2V46.8H94.788Zm21.853,4.644h-4.8V39.9a2.191,2.191,0,0,0,.523,1.635,2.506,2.506,0,0,0,1.764.5h2.511V46.8h-3.4q-6.848,0-6.848-6.938h0V29.086h-2.559V24.441h2.559V18.912h5.45v5.529h4.8Zm2.518,6.457a13.426,13.426,0,0,1,1.3-6.018,9.749,9.749,0,0,1,3.515-4.035,9.109,9.109,0,0,1,4.975-1.409h0a8.454,8.454,0,0,1,4.194,1.005,8.672,8.672,0,0,1,2.884,2.549h0V24.441h5.456V46.8h-5.456V43.528a8.129,8.129,0,0,1-2.884,2.605A8.542,8.542,0,0,1,128.9,47.16h0a8.844,8.844,0,0,1-4.934-1.451,9.975,9.975,0,0,1-3.515-4.092,13.645,13.645,0,0,1-1.3-6.074Zm16.865.078a7.506,7.506,0,0,0-.774-3.533,5.58,5.58,0,0,0-2.09-2.258,5.415,5.415,0,0,0-2.823-.786h0a5.314,5.314,0,0,0-2.782.765,5.653,5.653,0,0,0-2.07,2.244,7.252,7.252,0,0,0-.794,3.49h0a7.462,7.462,0,0,0,.794,3.526,5.816,5.816,0,0,0,2.083,2.322,5.149,5.149,0,0,0,2.769.807h0a5.415,5.415,0,0,0,2.823-.786,5.58,5.58,0,0,0,2.09-2.258,7.506,7.506,0,0,0,.774-3.533Z" transform="translate(-1.48 -15.16)" fill="#14061d"/>
        </g>
      </g>
    </g>
  </g>
</svg>
