<svg version="1.2" xmlns="http://www.w3.org/2000/svg" viewBox="0 0 70 70" width="70" height="70">
	<title>logo-svg</title>
	<defs>
		<linearGradient id="g1" x1="-8" y1="-22.5" x2="58.3" y2="86.7" gradientUnits="userSpaceOnUse">
			<stop offset="0" stop-color="#8fead8"/>
			<stop offset=".1" stop-color="#8ee6da"/>
			<stop offset=".2" stop-color="#8bd9de"/>
			<stop offset=".4" stop-color="#86c3e5"/>
			<stop offset=".5" stop-color="#80a5f0"/>
			<stop offset=".6" stop-color="#7987fa"/>
			<stop offset=".7" stop-color="#8386fa"/>
			<stop offset=".9" stop-color="#9f82fa"/>
			<stop offset="1" stop-color="#bc7ffa"/>
		</linearGradient>
		<linearGradient id="g2" x1="10.9" y1="-33.5" x2="76.7" y2="75.4" gradientUnits="userSpaceOnUse">
			<stop offset="0" stop-color="#8fead8"/>
			<stop offset=".1" stop-color="#8ee6da"/>
			<stop offset=".2" stop-color="#8bd9de"/>
			<stop offset=".4" stop-color="#86c3e5"/>
			<stop offset=".5" stop-color="#80a5f0"/>
			<stop offset=".6" stop-color="#7987fa"/>
			<stop offset=".7" stop-color="#8386fa"/>
			<stop offset=".9" stop-color="#9f82fa"/>
			<stop offset="1" stop-color="#bc7ffa"/>
		</linearGradient>
		<linearGradient id="g3" x1="22" y1="-40.2" x2="88.4" y2="68.7" gradientUnits="userSpaceOnUse">
			<stop offset="0" stop-color="#8fead8"/>
			<stop offset=".1" stop-color="#8ee6da"/>
			<stop offset=".2" stop-color="#8bd9de"/>
			<stop offset=".4" stop-color="#86c3e5"/>
			<stop offset=".5" stop-color="#80a5f0"/>
			<stop offset=".6" stop-color="#7987fa"/>
			<stop offset=".7" stop-color="#8386fa"/>
			<stop offset=".9" stop-color="#9f82fa"/>
			<stop offset="1" stop-color="#bc7ffa"/>
		</linearGradient>
		<linearGradient id="g4" x1="22.2" y1="-40.2" x2="88" y2="68.8" gradientUnits="userSpaceOnUse">
			<stop offset="0" stop-color="#8fead8"/>
			<stop offset=".1" stop-color="#8ee6da"/>
			<stop offset=".2" stop-color="#8bd9de"/>
			<stop offset=".4" stop-color="#86c3e5"/>
			<stop offset=".5" stop-color="#80a5f0"/>
			<stop offset=".6" stop-color="#7987fa"/>
			<stop offset=".7" stop-color="#8386fa"/>
			<stop offset=".9" stop-color="#9f82fa"/>
			<stop offset="1" stop-color="#bc7ffa"/>
		</linearGradient>
		<linearGradient id="g5" x1="-16.9" y1="-16.9" x2="49.3" y2="92" gradientUnits="userSpaceOnUse">
			<stop offset="0" stop-color="#8fead8"/>
			<stop offset=".1" stop-color="#8ee6da"/>
			<stop offset=".2" stop-color="#8bd9de"/>
			<stop offset=".4" stop-color="#86c3e5"/>
			<stop offset=".5" stop-color="#80a5f0"/>
			<stop offset=".6" stop-color="#7987fa"/>
			<stop offset=".7" stop-color="#8386fa"/>
			<stop offset=".9" stop-color="#9f82fa"/>
			<stop offset="1" stop-color="#bc7ffa"/>
		</linearGradient>
		<linearGradient id="g6" x1="5.5" y1="-30.5" x2="71.8" y2="78.6" gradientUnits="userSpaceOnUse">
			<stop offset="0" stop-color="#8fead8"/>
			<stop offset=".1" stop-color="#8ee6da"/>
			<stop offset=".2" stop-color="#8bd9de"/>
			<stop offset=".4" stop-color="#86c3e5"/>
			<stop offset=".5" stop-color="#80a5f0"/>
			<stop offset=".6" stop-color="#7987fa"/>
			<stop offset=".7" stop-color="#8386fa"/>
			<stop offset=".9" stop-color="#9f82fa"/>
			<stop offset="1" stop-color="#bc7ffa"/>
		</linearGradient>
		<linearGradient id="g7" x1="-11.7" y1="-20" x2="54.1" y2="89" gradientUnits="userSpaceOnUse">
			<stop offset="0" stop-color="#8fead8"/>
			<stop offset=".1" stop-color="#8ee6da"/>
			<stop offset=".2" stop-color="#8bd9de"/>
			<stop offset=".4" stop-color="#86c3e5"/>
			<stop offset=".5" stop-color="#80a5f0"/>
			<stop offset=".6" stop-color="#7987fa"/>
			<stop offset=".7" stop-color="#8386fa"/>
			<stop offset=".9" stop-color="#9f82fa"/>
			<stop offset="1" stop-color="#bc7ffa"/>
		</linearGradient>
		<linearGradient id="g8" x1="-0.5" y1="-26.8" x2="65.9" y2="82.2" gradientUnits="userSpaceOnUse">
			<stop offset="0" stop-color="#8fead8"/>
			<stop offset=".1" stop-color="#8ee6da"/>
			<stop offset=".2" stop-color="#8bd9de"/>
			<stop offset=".4" stop-color="#86c3e5"/>
			<stop offset=".5" stop-color="#80a5f0"/>
			<stop offset=".6" stop-color="#7987fa"/>
			<stop offset=".7" stop-color="#8386fa"/>
			<stop offset=".9" stop-color="#9f82fa"/>
			<stop offset="1" stop-color="#bc7ffa"/>
		</linearGradient>
		<linearGradient id="g9" x1="-0.4" y1="-26.7" x2="65.4" y2="82.2" gradientUnits="userSpaceOnUse">
			<stop offset="0" stop-color="#8fead8"/>
			<stop offset=".1" stop-color="#8ee6da"/>
			<stop offset=".2" stop-color="#8bd9de"/>
			<stop offset=".4" stop-color="#86c3e5"/>
			<stop offset=".5" stop-color="#80a5f0"/>
			<stop offset=".6" stop-color="#7987fa"/>
			<stop offset=".7" stop-color="#8386fa"/>
			<stop offset=".9" stop-color="#9f82fa"/>
			<stop offset="1" stop-color="#bc7ffa"/>
		</linearGradient>
		<linearGradient id="g10" x1="3.2" y1="-29" x2="69.6" y2="80" gradientUnits="userSpaceOnUse">
			<stop offset="0" stop-color="#8fead8"/>
			<stop offset=".1" stop-color="#8ee6da"/>
			<stop offset=".2" stop-color="#8bd9de"/>
			<stop offset=".4" stop-color="#86c3e5"/>
			<stop offset=".5" stop-color="#80a5f0"/>
			<stop offset=".6" stop-color="#7987fa"/>
			<stop offset=".7" stop-color="#8386fa"/>
			<stop offset=".9" stop-color="#9f82fa"/>
			<stop offset="1" stop-color="#bc7ffa"/>
		</linearGradient>
		<linearGradient id="g11" x1="-25" y1="-12.3" x2="41.4" y2="96.9" gradientUnits="userSpaceOnUse">
			<stop offset="0" stop-color="#8fead8"/>
			<stop offset=".1" stop-color="#8ee6da"/>
			<stop offset=".2" stop-color="#8bd9de"/>
			<stop offset=".4" stop-color="#86c3e5"/>
			<stop offset=".5" stop-color="#80a5f0"/>
			<stop offset=".6" stop-color="#7987fa"/>
			<stop offset=".7" stop-color="#8386fa"/>
			<stop offset=".9" stop-color="#9f82fa"/>
			<stop offset="1" stop-color="#bc7ffa"/>
		</linearGradient>
	</defs>
	<style>
		.s0 { fill: url(#g1) } 
		.s1 { fill: url(#g2) } 
		.s2 { fill: url(#g3) } 
		.s3 { fill: url(#g4) } 
		.s4 { fill: url(#g5) } 
		.s5 { fill: url(#g6) } 
		.s6 { fill: url(#g7) } 
		.s7 { fill: url(#g8) } 
		.s8 { fill: url(#g9) } 
		.s9 { fill: url(#g10) } 
		.s10 { fill: url(#g11) } 
		.s11 { fill: #14061d } 
	</style>
	<g id="Group_4396">
		<g id="Layer_1">
			<path id="Path_1" class="s0" d="m38.4 31.8q-0.2 0.7-0.7 1.3-0.5 0.6-1.1 1-0.6 0.4-1.3 0.6v35.3h-2.6v-35.3c-1.7-0.5-3-1.9-3.3-3.6-0.3-1.8 0.4-3.6 1.8-4.6 1.4-1.1 3.3-1.2 4.9-0.4 1.6 0.8 2.6 2.4 2.6 4.2q0 0.7-0.3 1.5z"/>
			<path id="Path_2" class="s1" d="m32.2 8.9q-0.8-0.4-1.5-1-0.6-0.7-1-1.5-0.4-0.9-0.4-1.8c0-1.8 1.2-3.5 2.9-4.2 1.7-0.8 3.7-0.4 5 0.9 1.3 1.3 1.7 3.3 1 5.1-0.7 1.7-2.3 2.8-4.2 2.8q-0.9 0-1.8-0.3z"/>
			<path id="Ellipse_1" class="s2" d="m49.4 7.9c-1.8 0-3.3-1.5-3.3-3.3 0-1.8 1.5-3.2 3.3-3.2 1.8 0 3.2 1.4 3.2 3.2 0 1.8-1.4 3.3-3.2 3.3z"/>
			<path id="Path_3" class="s3" d="m55.8 20.4q-0.6-0.2-1.1-0.7-0.4-0.4-0.7-1-0.2-0.6-0.2-1.2c0-1.4 0.8-2.5 2-3 1.2-0.5 2.6-0.3 3.5 0.7 0.9 0.9 1.2 2.3 0.7 3.5-0.5 1.2-1.6 2-3 2q-0.6 0-1.2-0.3z"/>
			<path id="Path_4" class="s4" d="m27.1 40q0.7 0.1 1.2 0.5 0.5 0.4 0.8 1 0.3 0.5 0.4 1.2 0.1 0.5 0 1-0.1 0.5-0.3 1-0.3 0.5-0.7 0.8-0.4 0.4-0.9 0.6v23.9h-2.6v-23.9q-0.6-0.3-1.1-0.8-0.5-0.6-0.7-1.3-0.2-0.7-0.1-1.5 0.1-0.7 0.6-1.3l-3.9-6.5q-0.1 0.1-0.3 0.1-0.1 0-0.3 0.1-0.1 0-0.3 0-0.1 0-0.3 0-0.7 0-1.4-0.2-0.8-0.3-1.4-0.7-0.6-0.5-1-1.1-0.4-0.6-0.6-1.3h-7.9c-0.6 1.4-2.1 2.2-3.7 1.9-1.5-0.3-2.5-1.7-2.5-3.2 0-1.6 1-2.9 2.5-3.2 1.6-0.3 3.1 0.5 3.7 1.9h7.9c0.3-1 1-2 1.9-2.6 0.9-0.6 2.1-0.8 3.2-0.7 1.1 0.2 2.1 0.7 2.8 1.6 0.8 0.8 1.2 1.9 1.2 3q0 0.4-0.1 0.9-0.1 0.4-0.2 0.8-0.2 0.4-0.5 0.8-0.2 0.3-0.5 0.7l3.9 6.4q0.6-0.1 1.2 0.1z"/>
			<path id="Path_5" class="s5" d="m67.6 28.8c0.6 1 0.5 2.3-0.1 3.3-0.7 1-1.9 1.6-3.1 1.4-1.2-0.1-2.2-0.8-2.7-2h-7.9q-0.2 0.8-0.6 1.4-0.4 0.6-1 1.1-0.6 0.4-1.4 0.7-0.7 0.2-1.4 0.2-0.2 0-0.3 0-0.2 0-0.3 0-0.2-0.1-0.3-0.1-0.2 0-0.3-0.1l-3.9 6.5q0.2 0.2 0.3 0.4 0.1 0.3 0.2 0.5 0.1 0.3 0.1 0.5 0 0.3 0.1 0.5-0.1 0.5-0.2 1-0.1 0.4-0.4 0.8-0.3 0.4-0.6 0.7-0.4 0.3-0.8 0.5v23.9h-2.6v-23.9c-0.7-0.3-1.3-0.8-1.6-1.5-0.4-0.6-0.5-1.4-0.3-2.1 0.1-0.8 0.5-1.4 1.1-1.9 0.6-0.5 1.3-0.7 2.1-0.7q0 0 0.1 0 0 0 0.1 0 0.1 0 0.1 0 0.1 0 0.1 0l3.9-6.4q-0.6-0.7-1-1.5-0.3-0.8-0.3-1.7 0-0.9 0.3-1.7 0.4-0.8 1-1.5l-3.1-5.2q-0.2 0-0.3 0.1-0.2 0-0.3 0-0.2 0-0.3 0.1-0.2 0-0.3 0c-1.9 0-3.6-1.2-4.3-2.9-0.7-1.8-0.3-3.8 1-5.1 1.3-1.3 3.4-1.7 5.1-1 1.7 0.7 2.9 2.5 2.8 4.3q0 0.5 0 0.9-0.1 0.5-0.3 0.9-0.2 0.4-0.4 0.7-0.2 0.4-0.5 0.7l3.1 5.2q0.1 0 0.3 0 0.1-0.1 0.3-0.1 0.1 0 0.3 0 0.1 0 0.3 0 0.7 0 1.4 0.2 0.8 0.2 1.4 0.7 0.6 0.5 1 1.1 0.4 0.6 0.6 1.3h7.9q0.2-0.4 0.5-0.8 0.3-0.4 0.7-0.6 0.4-0.3 0.9-0.4 0.5-0.2 0.9-0.2c1.2 0 2.3 0.7 2.9 1.8z"/>
			<path id="Path_6" class="s6" d="m9.7 20.4q-0.6-0.2-1.1-0.7-0.4-0.4-0.7-1-0.2-0.6-0.2-1.2c0-1.4 0.8-2.5 2-3 1.2-0.5 2.6-0.3 3.5 0.7 0.9 0.9 1.2 2.3 0.7 3.5-0.5 1.2-1.6 2-3 2q-0.6 0-1.2-0.3z"/>
			<path id="Ellipse_2" class="s7" d="m18.6 7.9c-1.8 0-3.2-1.5-3.2-3.3 0-1.8 1.4-3.2 3.2-3.2 1.8 0 3.3 1.4 3.3 3.2 0 1.8-1.5 3.3-3.3 3.3z"/>
			<path id="Path_7" class="s8" d="m24.5 21.7q-0.8-0.3-1.5-1-0.6-0.6-1-1.5-0.3-0.8-0.3-1.8c0-1.8 1.1-3.5 2.8-4.2 1.7-0.7 3.7-0.3 5 1 1.3 1.3 1.8 3.3 1.1 5-0.8 1.7-2.4 2.8-4.3 2.9q-0.9 0-1.8-0.4z"/>
			<path id="Path_8" class="s9" d="m60.7 40.2c0.9 1.1 1.2 2.6 0.9 3.9-0.3 1.4-1.2 2.6-2.5 3.2-1.3 0.6-2.8 0.6-4 0l-4.5 5v17.7h-2.5v-18.6l5-5.8q-0.1-0.2-0.3-0.5-0.1-0.3-0.2-0.7-0.1-0.3-0.2-0.6 0-0.3 0-0.7 0-0.9 0.3-1.8 0.4-0.8 1.1-1.5 0.6-0.6 1.5-1 0.8-0.3 1.7-0.3c1.5 0 2.8 0.6 3.7 1.7z"/>
			<path id="Path_9" class="s10" d="m15.6 43.8q-0.1 0.3-0.2 0.6-0.1 0.3-0.2 0.7-0.2 0.3-0.4 0.5l5.1 5.8v18.6h-2.5v-17.7l-4.5-5q-0.2 0.1-0.4 0.2-0.3 0.1-0.5 0.1-0.3 0.1-0.5 0.1-0.3 0-0.6 0c-1.8 0-3.5-1.1-4.3-2.8-0.7-1.8-0.3-3.8 1.1-5.1 1.3-1.4 3.3-1.7 5.1-1 1.7 0.7 2.8 2.4 2.8 4.3q0 0.4 0 0.7z"/>
		</g>
		<g id="Group_5">
			<g id="Group_2">
				<g id="Group_1">
					<path id="Path_10" fill-rule="evenodd" class="s11" d="m85.7 58.9v-6.8h-2.7v-1h6.6v1h-2.7v6.8zm13.3-7.8h1.1v7.8h-1.1v-3.5h-4.6v3.5h-1.1v-7.8h1.1v3.4h4.6zm7.2 6.8h4.6v1h-5.8v-7.8h5.7v0.9h-4.5v2.4h4v1h-4zm16.9 1q-0.2 0-0.4 0-0.3 0-0.5 0-0.2-0.1-0.4-0.1-0.2-0.1-0.4-0.1-0.2-0.1-0.4-0.2-0.2 0-0.3-0.1-0.2-0.1-0.4-0.2-0.1-0.1-0.3-0.3l0.5-0.8q0.1 0.1 0.2 0.2 0.2 0.1 0.3 0.2 0.2 0 0.3 0.1 0.2 0.1 0.3 0.1 0.2 0.1 0.4 0.1 0.2 0.1 0.4 0.1 0.1 0.1 0.3 0.1 0.2 0 0.4 0 0.2 0 0.4 0 0.2 0 0.4-0.1 0.1 0 0.3-0.1 0.2 0 0.4-0.1 0.1-0.1 0.2-0.2 0.1-0.1 0.1-0.2 0.1-0.1 0.1-0.3 0.1-0.1 0.1-0.2 0-0.1-0.1-0.2 0-0.1 0-0.2 0-0.1-0.1-0.1 0-0.1-0.1-0.2-0.1 0-0.2-0.1 0-0.1-0.1-0.1-0.1-0.1-0.2-0.1-0.1 0-0.2-0.1-0.4-0.1-1.1-0.3-0.2 0-0.3 0-0.2-0.1-0.4-0.1-0.2-0.1-0.4-0.2-0.1 0-0.3-0.1-0.2 0-0.3-0.1-0.1-0.1-0.2-0.2-0.2 0-0.3-0.1-0.1-0.1-0.2-0.2-0.1-0.2-0.1-0.3-0.1-0.1-0.2-0.3 0-0.1 0-0.3-0.1-0.2-0.1-0.3 0-0.2 0.1-0.3 0-0.2 0-0.3 0.1-0.2 0.1-0.3 0.1-0.1 0.2-0.3 0.1-0.1 0.2-0.2 0.1-0.1 0.2-0.2 0.2-0.1 0.3-0.2 0.1-0.1 0.3-0.2 0.2 0 0.4-0.1 0.2-0.1 0.4-0.1 0.2 0 0.5 0 0.2-0.1 0.4-0.1 0.2 0 0.3 0.1 0.2 0 0.4 0 0.2 0 0.3 0 0.2 0.1 0.4 0.1 0.1 0.1 0.3 0.1 0.1 0.1 0.3 0.1 0.1 0.1 0.3 0.2 0.1 0 0.2 0.1l-0.3 0.9q-0.3-0.1-0.5-0.2-0.3-0.2-0.6-0.2-0.3-0.1-0.5-0.2-0.3 0-0.6 0-0.2 0-0.4 0-0.2 0-0.4 0.1-0.1 0-0.3 0.1-0.2 0-0.4 0.1-0.1 0.1-0.2 0.2-0.1 0.1-0.1 0.2-0.1 0.1-0.1 0.3 0 0.1 0 0.2-0.1 0.1 0 0.2 0 0.1 0 0.2 0.1 0.1 0.1 0.2 0.1 0 0.1 0.1 0.1 0.1 0.2 0.1 0.1 0.1 0.1 0.1 0.1 0.1 0.2 0.1 0.1 0 0.2 0.1 0.1 0 0.3 0.1 0.1 0 0.2 0 0.2 0.1 0.3 0.1 0.2 0 0.3 0.1 0.2 0 0.4 0.1 0.1 0 0.3 0.1 0.2 0 0.4 0.1 0.2 0 0.3 0.1 0.2 0.1 0.3 0.1 0.1 0.1 0.3 0.2 0.1 0.1 0.2 0.1 0.1 0.1 0.2 0.3 0.1 0.1 0.2 0.2 0 0.2 0.1 0.3 0 0.2 0.1 0.3 0 0.2 0 0.3 0 0.2 0 0.3-0.1 0.2-0.1 0.3-0.1 0.2-0.1 0.3-0.1 0.1-0.2 0.2-0.1 0.2-0.2 0.3-0.1 0.1-0.2 0.2-0.2 0.1-0.3 0.2-0.1 0.1-0.3 0.1-0.2 0.1-0.4 0.2-0.2 0-0.4 0.1-0.2 0-0.5 0-0.2 0.1-0.4 0zm13.2 0l-0.9-2h-4.2l-0.9 2h-1.1l3.6-7.9h1.1l3.6 7.9zm-4.7-2.9h3.4l-1.7-3.8zm9.6 2.8v-7.8h1.2v6.9h4.3v0.9zm10.4-0.9h4.6v0.9h-5.7v-7.8h5.6v1h-4.5v2.4h4v0.9h-4zm11.3 1.1q-0.2 0-0.4 0-0.2 0-0.5-0.1-0.2 0-0.4-0.1-0.2 0-0.4-0.1-0.2 0-0.4-0.1-0.1-0.1-0.3-0.2-0.2-0.1-0.3-0.2-0.2-0.1-0.3-0.2l0.4-0.9q0.1 0.1 0.3 0.2 0.1 0.1 0.2 0.2 0.2 0.1 0.4 0.2 0.1 0 0.3 0.1 0.1 0.1 0.3 0.1 0.2 0 0.4 0.1 0.2 0 0.4 0 0.1 0 0.3 0 0.2 0.1 0.4 0 0.2 0 0.4 0 0.2-0.1 0.4-0.1 0.1-0.1 0.3-0.2 0.1-0.1 0.2-0.2 0.1 0 0.2-0.2 0-0.1 0.1-0.2 0-0.1 0-0.3 0-0.1 0-0.2 0 0-0.1-0.1 0-0.1-0.1-0.2 0-0.1-0.1-0.1 0-0.1-0.1-0.1-0.1-0.1-0.2-0.1-0.1-0.1-0.2-0.1 0-0.1-0.1-0.1-0.2-0.1-0.3-0.1-0.1 0-0.3-0.1-0.1 0-0.3 0-0.1-0.1-0.2-0.1-0.2 0-0.4-0.1-0.2 0-0.4-0.1-0.2 0-0.3-0.1-0.2-0.1-0.4-0.1-0.1-0.1-0.3-0.1-0.1-0.1-0.2-0.2-0.1-0.1-0.2-0.2-0.1-0.1-0.2-0.2-0.1-0.1-0.2-0.2-0.1-0.2-0.1-0.3-0.1-0.2-0.1-0.4 0-0.1 0-0.3 0-0.1 0-0.3 0-0.1 0.1-0.3 0-0.1 0.1-0.2 0-0.2 0.1-0.3 0.1-0.1 0.2-0.3 0.1-0.1 0.3-0.2 0.1-0.1 0.2-0.2 0.2 0 0.3-0.1 0.2-0.1 0.4-0.1 0.2-0.1 0.5-0.1 0.2-0.1 0.4-0.1 0.2 0 0.4 0 0.2 0 0.4 0 0.1 0 0.3 0 0.2 0.1 0.4 0.1 0.1 0 0.3 0.1 0.2 0 0.3 0.1 0.2 0 0.3 0.1 0.2 0 0.3 0.1 0.1 0.1 0.3 0.2l-0.4 0.9q-0.2-0.2-0.5-0.3-0.3-0.1-0.5-0.2-0.3-0.1-0.6-0.1-0.3-0.1-0.6-0.1-0.2 0-0.4 0-0.1 0.1-0.3 0.1-0.2 0.1-0.4 0.1-0.2 0.1-0.3 0.2-0.1 0.1-0.2 0.2-0.1 0.1-0.2 0.2 0 0.1-0.1 0.2 0 0.2 0 0.3 0 0.1 0 0.2 0 0.1 0.1 0.1 0 0.1 0 0.2 0.1 0.1 0.2 0.1 0 0.1 0.1 0.2 0.1 0 0.2 0.1 0.1 0 0.2 0.1 0 0 0.1 0 0.2 0.1 0.3 0.1 0.1 0.1 0.3 0.1 0.1 0 0.3 0.1 0.1 0 0.2 0 0.2 0.1 0.4 0.1 0.2 0.1 0.4 0.1 0.1 0.1 0.3 0.1 0.2 0.1 0.4 0.2 0.1 0 0.2 0.1 0.2 0 0.3 0.1 0.1 0.1 0.2 0.2 0.1 0.1 0.2 0.2 0.1 0.1 0.2 0.3 0.1 0.1 0.1 0.3 0.1 0.1 0.1 0.3 0 0.1 0 0.3 0 0.1 0 0.3 0 0.1-0.1 0.3 0 0.1-0.1 0.2 0 0.2-0.1 0.3-0.1 0.1-0.2 0.3-0.2 0.1-0.3 0.2-0.1 0.1-0.3 0.2-0.1 0-0.3 0.1-0.2 0.1-0.4 0.1-0.2 0.1-0.4 0.1-0.2 0.1-0.4 0.1-0.3 0-0.5 0zm16.4 0q-0.2 0-0.5 0-0.3-0.1-0.6-0.1-0.2-0.1-0.5-0.2-0.3-0.1-0.5-0.2-0.5-0.3-0.9-0.7-0.4-0.3-0.6-0.8-0.3-0.4-0.4-1-0.2-0.5-0.2-1 0-0.3 0.1-0.5 0-0.3 0.1-0.6 0-0.2 0.1-0.5 0.1-0.2 0.3-0.5 0.1-0.2 0.3-0.4 0.1-0.2 0.3-0.4 0.2-0.2 0.4-0.3 0.3-0.2 0.5-0.3 0.2-0.1 0.5-0.2 0.3-0.1 0.5-0.2 0.3-0.1 0.6-0.1 0.3 0 0.6 0 0.2 0 0.4 0 0.2 0 0.4 0.1 0.2 0 0.4 0.1 0.3 0 0.5 0.1 0.1 0.1 0.3 0.2 0.2 0.1 0.4 0.2 0.1 0.1 0.3 0.2 0.1 0.2 0.3 0.3l-0.8 0.7q-0.2-0.2-0.4-0.4-0.3-0.2-0.6-0.3-0.3-0.1-0.6-0.2-0.3 0-0.6 0-0.2 0-0.4 0-0.2 0-0.4 0.1-0.2 0-0.4 0.1-0.2 0.1-0.4 0.2-0.2 0.1-0.3 0.2-0.2 0.1-0.3 0.2-0.2 0.2-0.3 0.3-0.1 0.2-0.2 0.4-0.1 0.1-0.2 0.3-0.1 0.2-0.1 0.4-0.1 0.2-0.1 0.4 0 0.2 0 0.4 0 0.2 0 0.4 0 0.2 0.1 0.4 0 0.2 0.1 0.4 0.1 0.2 0.2 0.3 0.1 0.2 0.2 0.4 0.1 0.1 0.3 0.2 0.1 0.2 0.3 0.3 0.1 0.1 0.3 0.2 0.2 0.1 0.4 0.2 0.2 0.1 0.4 0.1 0.2 0.1 0.4 0.1 0.2 0 0.4 0 0.3 0 0.6-0.1 0.3 0 0.6-0.1 0.3-0.2 0.6-0.3 0.2-0.2 0.4-0.4l0.8 0.7q-0.2 0.1-0.3 0.2-0.2 0.2-0.3 0.3-0.2 0.1-0.4 0.2-0.2 0.1-0.3 0.2-0.3 0.1-0.5 0.1-0.2 0.1-0.4 0.1-0.2 0.1-0.4 0.1-0.2 0-0.5 0zm10.7 0q-0.3 0-0.6 0-0.3-0.1-0.6-0.1-0.2-0.1-0.5-0.2-0.3-0.1-0.5-0.2-0.5-0.3-0.9-0.6-0.4-0.4-0.6-0.9-0.3-0.4-0.5-1-0.1-0.5-0.1-1 0-0.3 0-0.5 0.1-0.3 0.1-0.6 0.1-0.2 0.2-0.5 0.1-0.2 0.3-0.5 0.1-0.2 0.3-0.4 0.1-0.2 0.3-0.4 0.2-0.2 0.4-0.3 0.2-0.2 0.5-0.3 0.2-0.1 0.5-0.2 0.3-0.1 0.5-0.2 0.3-0.1 0.6-0.1 0.3 0 0.6 0 0.2 0 0.5 0 0.3 0 0.6 0.1 0.2 0.1 0.5 0.2 0.3 0.1 0.5 0.2 0.2 0.1 0.5 0.3 0.2 0.1 0.4 0.3 0.2 0.2 0.3 0.4 0.2 0.2 0.3 0.4 0.2 0.3 0.3 0.5 0.1 0.3 0.1 0.5 0.1 0.3 0.1 0.6 0.1 0.2 0.1 0.5 0 0.5-0.2 1-0.1 0.6-0.4 1-0.2 0.5-0.6 0.9-0.4 0.3-0.9 0.6-0.2 0.1-0.5 0.2-0.3 0.1-0.5 0.2-0.3 0-0.6 0.1-0.3 0-0.5 0zm0-1q0.2 0 0.4 0 0.2 0 0.4-0.1 0.2 0 0.4-0.1 0.2-0.1 0.3-0.2 0.2-0.1 0.4-0.2 0.1-0.1 0.3-0.3 0.1-0.1 0.2-0.2 0.1-0.2 0.2-0.4 0.1-0.1 0.2-0.3 0.1-0.2 0.1-0.4 0.1-0.2 0.1-0.4 0-0.2 0-0.4 0-0.2 0-0.4 0-0.2-0.1-0.4 0-0.2-0.1-0.4-0.1-0.2-0.2-0.3-0.1-0.2-0.2-0.4-0.1-0.1-0.2-0.3-0.2-0.1-0.3-0.2-0.2-0.1-0.4-0.2-0.1-0.1-0.3-0.2-0.2-0.1-0.4-0.1-0.2-0.1-0.4-0.1-0.2 0-0.4 0-0.3 0-0.5 0-0.2 0-0.4 0.1-0.2 0-0.4 0.1-0.1 0.1-0.3 0.2-0.2 0.1-0.4 0.2-0.1 0.1-0.3 0.2-0.1 0.2-0.2 0.3-0.1 0.2-0.2 0.4-0.1 0.1-0.2 0.3-0.1 0.2-0.1 0.4-0.1 0.2-0.1 0.4 0 0.2 0 0.4 0 0.2 0 0.4 0 0.2 0.1 0.4 0 0.2 0.1 0.4 0.1 0.2 0.2 0.3 0.1 0.2 0.2 0.4 0.1 0.1 0.2 0.2 0.2 0.2 0.3 0.3 0.2 0.1 0.4 0.2 0.2 0.1 0.3 0.2 0.2 0.1 0.4 0.1 0.2 0.1 0.4 0.1 0.2 0 0.5 0zm16.9 0.9h-1.1v-5.7l-2.9 4.7h-0.5l-2.9-4.7v5.7h-1.1v-7.8h1l3.3 5.5 3.3-5.5h0.9zm8-7.8q0.4-0.1 0.7 0 0.3 0 0.6 0.1 0.3 0.1 0.6 0.2 0.3 0.2 0.6 0.4 0.2 0.2 0.4 0.4 0.1 0.2 0.2 0.5 0.2 0.2 0.2 0.5 0.1 0.3 0 0.6 0.1 0.3 0 0.5 0 0.3-0.2 0.6-0.1 0.2-0.2 0.5-0.2 0.2-0.4 0.4-0.3 0.2-0.6 0.3-0.3 0.2-0.6 0.3-0.3 0.1-0.6 0.1-0.3 0-0.7 0h-1.9v2.4h-1.2v-7.8zm0 4.4q0.2 0.1 0.4 0 0.2 0 0.4 0 0.3-0.1 0.5-0.2 0.2-0.1 0.3-0.2 0.2-0.1 0.3-0.3 0.1-0.1 0.2-0.3 0-0.2 0.1-0.3 0-0.2 0-0.4 0-0.2 0-0.4-0.1-0.2-0.1-0.3-0.1-0.2-0.2-0.3-0.1-0.2-0.3-0.3-0.1-0.1-0.3-0.2-0.2-0.1-0.5-0.2-0.2 0-0.4-0.1-0.2 0-0.4 0h-1.9v3.5zm13.1 3.4l-0.9-2h-4.3l-0.8 2h-1.2l3.6-7.8h1.1l3.6 7.8zm-4.7-2.9h3.5l-1.7-3.8zm15.3-5h1.1v7.8h-0.9l-4.8-5.8v5.8h-1.1v-7.8h0.9l4.8 5.9zm12.2 0l-3.1 5.1v2.7h-1.1v-2.7l-3.2-5.1h1.2l2.6 4.1 2.5-4.1z"/>
				</g>
			</g>
			<g id="Group_4">
				<g id="Group_3">
					<path id="Path_11" fill-rule="evenodd" class="s11" d="m103 42.6l-1.8-5.3h-10.7l-1.8 5.3h-5.7l9.7-28.2h6.3l9.7 28.2zm-11-9.8h7.8l-3.9-11.8zm31.5-7.9h-4.8v10.9q0 0.2 0 0.4 0 0.2 0.1 0.4 0.1 0.2 0.2 0.4 0.1 0.2 0.2 0.4 0.2 0.1 0.4 0.2 0.2 0.1 0.5 0.2 0.2 0.1 0.4 0.1 0.3 0 0.5 0h2.5v4.8h-3.4q-6.8 0-6.8-7v-10.8h-2.6v-4.6h2.6v-5.5h5.4v5.5h4.8zm15 0h-4.8v10.8q0 0.2 0 0.4 0 0.3 0.1 0.5 0.1 0.2 0.2 0.4 0.1 0.2 0.2 0.3 0.2 0.2 0.4 0.3 0.2 0.1 0.5 0.2 0.2 0 0.4 0 0.3 0.1 0.5 0h2.5v4.8h-3.4q-6.8 0-6.8-6.9v-10.8h-2.6v-4.7h2.6v-5.5h5.4v5.5h4.8zm6.7-7.3q-0.7 0.1-1.3-0.2-0.6-0.2-1.1-0.7-0.5-0.5-0.7-1.1-0.3-0.6-0.3-1.3 0-0.6 0.3-1.2 0.2-0.7 0.7-1.1 0.5-0.5 1.1-0.7 0.6-0.3 1.3-0.3 0.6 0 1.2 0.2 0.7 0.3 1.1 0.8 0.5 0.4 0.8 1.1 0.2 0.6 0.2 1.2 0 0.4-0.1 0.7 0 0.3-0.1 0.6-0.2 0.3-0.3 0.6-0.2 0.3-0.5 0.5-0.2 0.2-0.5 0.4-0.2 0.2-0.5 0.3-0.4 0.1-0.7 0.2-0.3 0.1-0.6 0zm-2.8 2.7h5.4v22.4h-5.4zm14.3 0l5.4 17.1 5.4-17.1h5.8l-7.9 22.3h-6.6l-7.9-22.3zm22.4-2.7q-0.7 0-1.3-0.2-0.6-0.3-1.1-0.7-0.4-0.5-0.7-1.1-0.2-0.6-0.2-1.3 0-0.7 0.2-1.3 0.3-0.6 0.7-1.1 0.5-0.4 1.1-0.7 0.6-0.2 1.3-0.2 0.7 0 1.3 0.2 0.6 0.3 1.1 0.7 0.4 0.5 0.7 1.1 0.2 0.6 0.2 1.3 0 0.3 0 0.6-0.1 0.4-0.2 0.7-0.1 0.3-0.3 0.5-0.2 0.3-0.4 0.6-0.3 0.2-0.5 0.4-0.3 0.2-0.6 0.3-0.3 0.1-0.6 0.2-0.4 0-0.7 0zm-2.7 2.7h5.4v22.3h-5.4zm21.8 4.7h-4.8v10.8q0 0.2 0 0.4 0 0.2 0.1 0.5 0.1 0.2 0.2 0.4 0.1 0.1 0.2 0.3 0.2 0.2 0.4 0.3 0.2 0.1 0.5 0.1 0.2 0.1 0.4 0.1 0.3 0 0.5 0h2.5v4.8h-3.4q-6.8 0-6.8-7v-10.7h-2.6v-4.7h2.6v-5.5h5.4v5.5h4.8zm2.5 6.5q0-0.8 0.1-1.6 0.1-0.7 0.2-1.5 0.2-0.8 0.4-1.5 0.3-0.7 0.6-1.4 0.3-0.7 0.7-1.2 0.4-0.6 0.8-1.1 0.4-0.5 1-1 0.5-0.4 1-0.8 0.6-0.3 1.2-0.6 0.6-0.3 1.2-0.4 0.7-0.2 1.3-0.3 0.7-0.1 1.3-0.1 0.6 0 1.1 0.1 0.5 0 1.1 0.1 0.5 0.2 1 0.4 0.5 0.2 1 0.4 0.4 0.3 0.8 0.5 0.4 0.3 0.8 0.6 0.4 0.4 0.7 0.7 0.3 0.4 0.6 0.8v-3.2h5.4v22.3h-5.4v-3.2q-0.3 0.4-0.6 0.7-0.3 0.4-0.7 0.7-0.4 0.4-0.8 0.7-0.4 0.2-0.8 0.5-0.5 0.2-1 0.4-0.5 0.2-1 0.4-0.6 0.1-1.1 0.1-0.6 0.1-1.1 0.1-0.7 0-1.3-0.1-0.7-0.1-1.3-0.3-0.6-0.1-1.2-0.4-0.6-0.3-1.2-0.7-0.5-0.3-1-0.8-0.6-0.4-1-1-0.5-0.5-0.8-1.1-0.4-0.5-0.7-1.1-0.3-0.8-0.6-1.5-0.2-0.7-0.4-1.5-0.1-0.8-0.2-1.6-0.1-0.7-0.1-1.5zm16.9 0.1q0-0.5 0-1-0.1-0.4-0.2-0.9-0.1-0.4-0.2-0.8-0.2-0.5-0.4-0.9-0.2-0.3-0.4-0.6-0.2-0.4-0.5-0.7-0.2-0.2-0.5-0.5-0.3-0.2-0.7-0.4-0.3-0.2-0.6-0.4-0.4-0.1-0.7-0.2-0.4-0.1-0.8-0.2-0.3 0-0.7 0-0.4 0-0.7 0-0.4 0.1-0.7 0.2-0.4 0.1-0.7 0.2-0.4 0.2-0.7 0.3-0.3 0.2-0.6 0.5-0.3 0.2-0.6 0.5-0.2 0.3-0.5 0.6-0.2 0.3-0.3 0.7-0.3 0.4-0.4 0.8-0.2 0.4-0.3 0.9-0.1 0.4-0.1 0.9-0.1 0.4 0 0.9-0.1 0.4 0 0.9 0 0.4 0.1 0.9 0.1 0.4 0.3 0.9 0.1 0.4 0.4 0.8 0.1 0.4 0.3 0.7 0.3 0.3 0.5 0.6 0.3 0.3 0.6 0.6 0.3 0.2 0.6 0.4 0.3 0.2 0.7 0.4 0.3 0.1 0.7 0.2 0.3 0.1 0.7 0.2 0.3 0 0.7 0 0.4 0 0.7 0 0.4-0.1 0.8-0.2 0.3-0.1 0.7-0.2 0.3-0.2 0.6-0.4 0.4-0.2 0.7-0.4 0.3-0.2 0.5-0.5 0.3-0.3 0.5-0.6 0.2-0.4 0.4-0.7 0.2-0.4 0.4-0.9 0.1-0.4 0.2-0.8 0.1-0.5 0.2-0.9 0-0.5 0-0.9z"/>
				</g>
			</g>
		</g>
	</g>
</svg>